<?xml version="1.0" standalone="no"?>
<!DOCTYPE svg PUBLIC "-//W3C//DTD SVG 20010904//EN"
 "http://www.w3.org/TR/2001/REC-SVG-20010904/DTD/svg10.dtd">
<svg version="1.0" xmlns="http://www.w3.org/2000/svg"
 width="300.000000pt" height="47.000000pt" viewBox="0 0 300.000000 47.000000"
 preserveAspectRatio="xMidYMid meet">
<metadata>
Created by potrace 1.10, written by Peter Selinger 2001-2011
</metadata>
<g transform="translate(0.000000,47.000000) scale(0.100000,-0.100000)"
fill="#00c2cb" stroke="none">
<path d="M275 439 c-4 -12 -1 -27 7 -37 26 -31 16 -47 -29 -50 -42 -3 -43 -4
-43 -38 0 -32 -2 -34 -35 -34 -24 0 -35 -5 -35 -15 0 -12 -13 -15 -55 -15
l-55 0 0 66 c0 41 -4 63 -10 59 -13 -8 -13 -285 0 -285 5 0 10 30 12 68 l3 67
45 3 c30 2 48 -1 55 -11 6 -8 22 -17 35 -19 21 -2 25 -9 26 -38 0 -31 3 -34
30 -35 24 0 29 -4 30 -25 1 -14 -5 -33 -13 -42 -21 -23 -9 -48 22 -48 28 0 43
23 27 43 -6 7 -12 30 -14 52 -3 36 -6 40 -30 40 -24 -1 -28 3 -28 28 0 27 1
28 47 25 l47 -3 0 -45 c1 -43 3 -45 31 -48 17 -1 40 -8 53 -14 40 -21 77 16
47 45 -14 15 -19 15 -49 0 -50 -23 -66 -13 -66 42 0 38 -3 45 -20 45 -13 0
-20 7 -20 20 0 18 7 20 55 20 54 0 55 0 55 -30 l0 -30 65 0 c36 0 74 -5 84
-12 26 -16 51 -3 51 26 0 26 -26 42 -44 27 -6 -5 -39 -11 -74 -13 -62 -3 -62
-3 -62 25 l0 27 -75 0 -75 0 0 -30 c0 -30 -1 -30 -55 -30 -48 0 -55 2 -55 20
0 16 7 20 35 20 33 0 35 2 35 35 l0 35 105 0 c63 0 105 -4 105 -10 0 -14 33
-13 48 2 18 18 15 36 -9 48 -16 9 -24 8 -38 -4 -11 -10 -36 -16 -69 -16 -45 0
-52 3 -52 20 0 11 5 29 12 39 16 26 3 51 -26 51 -16 0 -27 -7 -31 -21z m45 -9
c0 -5 -7 -10 -15 -10 -8 0 -15 5 -15 10 0 6 7 10 15 10 8 0 15 -4 15 -10z
m160 -90 c0 -5 -7 -10 -15 -10 -8 0 -15 5 -15 10 0 6 7 10 15 10 8 0 15 -4 15
-10z m100 -130 c0 -5 -4 -10 -10 -10 -5 0 -10 5 -10 10 0 6 5 10 10 10 6 0 10
-4 10 -10z m-145 -100 c-3 -5 -10 -10 -16 -10 -5 0 -9 5 -9 10 0 6 7 10 16 10
8 0 12 -4 9 -10z m-161 -81 c-3 -5 -10 -7 -15 -3 -5 3 -7 10 -3 15 3 5 10 7
15 3 5 -3 7 -10 3 -15z"/>
<path d="M690 357 c-29 -10 -36 -18 -38 -43 -3 -35 16 -48 92 -59 79 -12 97
-55 28 -68 -30 -6 -105 16 -110 33 -6 16 -22 12 -22 -6 0 -8 20 -24 46 -36 53
-23 104 -20 135 8 43 38 9 79 -73 90 -62 8 -87 26 -69 48 17 20 80 21 107 1
22 -17 34 -19 34 -5 0 13 -38 36 -70 43 -14 3 -41 0 -60 -6z"/>
<path d="M1500 265 c0 -57 4 -95 10 -95 6 0 10 15 10 34 0 18 7 39 15 46 12
10 24 5 69 -34 75 -64 94 -57 23 8 l-57 53 56 39 c35 25 51 40 41 42 -9 2 -44
-18 -79 -43 l-63 -46 -3 46 c-6 83 -22 46 -22 -50z"/>
<path d="M1830 265 c0 -53 4 -95 9 -95 6 0 11 16 13 36 2 22 10 42 20 48 15 9
26 2 66 -37 26 -26 54 -47 62 -47 8 0 -10 25 -40 55 -29 30 -52 56 -49 58 2 2
25 19 52 37 26 18 47 35 47 37 0 13 -37 -4 -89 -42 -34 -25 -63 -45 -66 -45
-3 0 -5 20 -5 45 0 25 -4 45 -10 45 -6 0 -10 -38 -10 -95z"/>
<path d="M882 295 c-18 -8 -31 -19 -27 -25 4 -6 16 -5 35 5 37 19 94 19 110 0
15 -18 7 -22 -68 -28 -62 -5 -93 -27 -76 -55 19 -30 61 -38 109 -21 37 14 46
14 58 2 7 -7 21 -11 30 -7 22 8 22 26 0 22 -15 -2 -19 6 -21 44 -2 35 -9 52
-25 63 -27 19 -82 19 -125 0z m126 -72 c-5 -27 -82 -49 -115 -34 -45 21 -7 38
105 50 8 0 12 -7 10 -16z"/>
<path d="M1090 241 c0 -41 4 -71 10 -71 6 0 10 20 10 44 0 35 5 48 22 60 53
37 98 10 98 -60 0 -24 5 -44 10 -44 6 0 10 18 10 40 0 47 27 80 64 80 37 0 56
-25 56 -76 0 -24 5 -44 10 -44 6 0 10 23 10 50 0 37 -5 55 -20 70 -23 23 -76
26 -106 6 -17 -12 -22 -12 -39 0 -22 17 -59 18 -86 3 -15 -7 -24 -7 -35 2 -12
10 -14 1 -14 -60z"/>
<path d="M2064 301 c-23 -10 -39 -29 -31 -37 2 -2 17 2 33 11 32 16 81 19 103
6 25 -16 2 -29 -59 -33 -70 -5 -102 -27 -84 -56 19 -29 69 -37 115 -19 37 15
43 15 56 1 9 -8 22 -13 30 -10 8 3 17 6 19 6 2 0 4 5 4 10 0 6 -6 10 -12 9
-33 -4 -37 2 -33 40 2 22 -2 47 -9 56 -15 20 -99 30 -132 16z m121 -70 c16
-27 -88 -61 -125 -41 -32 17 -11 33 53 41 28 3 55 7 59 8 4 0 9 -3 13 -8z"/>
<path d="M2268 304 c-11 -10 -10 -134 1 -134 4 0 11 21 14 47 6 52 25 73 67
73 38 0 50 -18 50 -72 0 -26 5 -48 10 -48 6 0 10 13 10 29 0 71 42 107 96 82
21 -9 24 -17 24 -61 0 -27 5 -50 10 -50 6 0 10 24 10 54 0 45 -4 58 -22 70
-29 20 -67 20 -96 0 -20 -14 -24 -14 -44 0 -28 20 -67 20 -95 1 -19 -14 -22
-13 -25 1 -2 9 -6 12 -10 8z"/>
<path d="M2607 294 c-15 -8 -25 -19 -22 -24 3 -5 18 -2 33 6 32 16 76 18 103
3 30 -16 13 -29 -39 -29 -58 0 -96 -18 -100 -48 -3 -16 4 -25 25 -33 29 -11
90 -4 110 13 9 7 17 5 29 -7 9 -9 23 -14 31 -11 8 3 17 6 19 6 2 0 4 5 4 10 0
6 -8 10 -17 8 -15 -2 -19 6 -21 44 -2 35 -9 52 -25 63 -27 19 -94 19 -130 -1z
m133 -62 c0 -16 -35 -40 -67 -47 -39 -8 -73 1 -73 20 0 15 20 22 80 28 19 2
41 5 48 5 6 1 12 -2 12 -6z"/>
<path d="M2810 262 c0 -26 7 -57 15 -69 21 -30 68 -38 107 -18 21 10 34 12 36
5 2 -5 8 -10 13 -10 5 0 9 32 9 70 0 40 -4 70 -10 70 -5 0 -10 -18 -10 -39 0
-53 -26 -83 -73 -84 -48 -1 -59 11 -65 72 -6 65 -22 67 -22 3z"/>
<path d="M1696 192 c-3 -6 -1 -14 5 -17 15 -10 25 3 12 16 -7 7 -13 7 -17 1z"/>
</g>
</svg>
